<svg xmlns="http://www.w3.org/2000/svg" width="612.07" height="612.07" viewBox="0 0 612.07 612.07">
    <defs>
        <clipPath id="clip-Logo">
            <rect width="612.07" height="612.07"/>
        </clipPath>
    </defs>
    <g id="Logo" clip-path="url(#clip-Logo)">
        <g id="Group_6" data-name="Group 6" transform="translate(53 74)">
            <g id="download_1_" data-name="download (1)" transform="translate(72 51)">
                <path id="Path_1" data-name="Path 1" d="M0,361.073V0H361.073V361.073Z" fill="none"/>
                <g id="Group_2" data-name="Group 2" transform="translate(27.081 18.054)">
                    <path id="Path_2" data-name="Path 2"
                          d="M165.175,207.23c-81.959,0-151.2-19.638-151.2-42.878s69.24-42.877,151.2-42.877,151.2,19.638,151.2,42.877-69.24,42.878-151.2,42.878Z"
                          transform="translate(-11.718 115.479)" fill="#e1ebf2"/>
                    <path id="Path_3" data-name="Path 3"
                          d="M166.356,124.913c87.773,0,148.943,21.407,148.943,40.621s-61.17,40.621-148.943,40.621S17.413,184.748,17.413,165.534s61.17-40.621,148.943-40.621m0-4.513C81.6,120.4,12.9,140.607,12.9,165.534s68.7,45.134,153.456,45.134,153.456-20.207,153.456-45.134S251.109,120.4,166.356,120.4Z"
                          transform="translate(-12.9 114.298)" fill="#a3b7cc"/>
                    <path id="Path_4" data-name="Path 4"
                          d="M134.45,283.671C121.587,267.68,41.925,166.029,41.925,102.2a92.525,92.525,0,1,1,185.05,0C226.975,166.029,147.313,267.68,134.45,283.671Z"
                          transform="translate(19.006 -7.418)" fill="#f78f8f"/>
                    <path id="Path_5" data-name="Path 5"
                          d="M135.632,13.113A90.371,90.371,0,0,1,225.9,103.382c0,60.665-73.293,156.48-90.268,177.856-16.975-21.376-90.268-117.191-90.268-177.856a90.371,90.371,0,0,1,90.268-90.268m0-4.513A94.782,94.782,0,0,0,40.85,103.382c0,70.712,94.782,185.05,94.782,185.05s94.782-114.339,94.782-185.05A94.782,94.782,0,0,0,135.632,8.6Z"
                          transform="translate(17.824 -8.6)" fill="#c74343"/>
                    <g id="Group_1" data-name="Group 1" transform="translate(112.835 49.648)">
                        <path id="Path_6" data-name="Path 6"
                              d="M106.089,110.053a38.364,38.364,0,1,1,38.364-38.364A38.407,38.407,0,0,1,106.089,110.053Z"
                              transform="translate(-65.468 -31.068)" fill="#f2faff"/>
                        <path id="Path_7" data-name="Path 7"
                              d="M107.271,36.763A36.107,36.107,0,1,1,71.163,72.871a36.109,36.109,0,0,1,36.107-36.107m0-4.513a40.621,40.621,0,1,0,40.621,40.621A40.664,40.664,0,0,0,107.271,32.25Z"
                              transform="translate(-66.65 -32.25)" fill="#c74343"/>
                    </g>
                </g>
            </g>
            <g id="download_2_" data-name="download (2)"
               transform="matrix(1, 0.017, -0.017, 1, 74.609, 268.752)">
                <path id="Path_8" data-name="Path 8" d="M0,132.866V0H132.866V132.866Z" fill="none"/>
                <g id="Group_5" data-name="Group 5" transform="translate(19.376 16.608)">
                    <path id="Path_9" data-name="Path 9"
                          d="M130.5,133.883a31.734,31.734,0,0,1-5.143-1.913c-1.545-.706-3.02-1.475-4.448-2.3a66.3,66.3,0,0,1-8.061-5.481c-5.046-3.983-8.778-8.592-12.678-13.472A118.48,118.48,0,0,1,82.4,78.572a115.6,115.6,0,0,0,21.829,28.384c4.329,3.986,8.315,7.551,13.284,10.366a57.191,57.191,0,0,0,7.623,3.634c1.293.5,2.594.941,3.881,1.3a21.442,21.442,0,0,0,3.529.742,5.581,5.581,0,1,1-1.758,10.97Z"
                          transform="translate(-38.123 -34.485)" fill="#2e7d32"/>
                    <path id="Path_10" data-name="Path 10"
                          d="M97.886,40.06c-2.264,9.021-29.137,25.1-29.137,25.1S52.664,38.294,54.931,29.27c3.125-12.434,17.295-8.249,22.656.709,8.955-5.359,23.42-2.353,20.3,10.081ZM93.853,94.3c-9.021-2.264-25.1-29.137-25.1-29.137S95.622,49.08,104.643,51.348c12.434,3.125,8.249,17.295-.709,22.656,5.359,8.955,2.353,23.42-10.081,20.3ZM39.61,90.272c2.264-9.024,29.137-25.106,29.137-25.106s16.085,26.872,13.818,35.893c-3.125,12.434-17.292,8.249-22.656-.709-8.955,5.362-23.42,2.356-20.3-10.078Zm4.033-54.243c9.021,2.264,25.1,29.134,25.1,29.134S41.874,81.248,32.853,78.981c-12.434-3.125-8.249-17.295.709-22.656-5.359-8.952-2.353-23.42,10.081-20.3Z"
                          transform="translate(-25.083 -21.499)" fill="#4caf50"/>
                    <g id="Group_3" data-name="Group 3" transform="translate(27.653 24.916)">
                        <path id="Path_11" data-name="Path 11"
                              d="M95.156,60.211a18.039,18.039,0,0,1-2.978,3.54,37.256,37.256,0,0,1-3.493,2.843c-2.4,1.73-4.9,3.18-7.252,4.573l-2.4,1.426-1.409-2.367c-1.453-2.441-2.959-5.01-4.257-7.717a31.168,31.168,0,0,1-2.9-8.755,65.9,65.9,0,0,1,6.486,6.389,52.859,52.859,0,0,1,5.409,7.25l-3.8-.941a43.16,43.16,0,0,1,8.074-3.74c1.362-.507,2.771-.9,4.158-1.343,1.434-.385,2.8-.806,4.36-1.157Z"
                              transform="translate(-63.063 -53.754)" fill="#388e3c"/>
                        <path id="Path_12" data-name="Path 12"
                              d="M60.881,90.384a18.2,18.2,0,0,1,2.956-3.56,38.308,38.308,0,0,1,3.477-2.865c2.389-1.741,4.888-3.205,7.227-4.612l2.383-1.439,1.426,2.358c1.467,2.433,2.989,4.991,4.3,7.692A31.075,31.075,0,0,1,85.6,96.7a65.385,65.385,0,0,1-6.519-6.35,53.021,53.021,0,0,1-5.453-7.216l3.809.919a43.132,43.132,0,0,1-8.052,3.784c-1.359.512-2.763.913-4.149,1.365-1.431.393-2.8.825-4.351,1.185Z"
                              transform="translate(-60.881 -59.249)" fill="#388e3c"/>
                    </g>
                    <g id="Group_4" data-name="Group 4" transform="translate(11.125 11.123)">
                        <path id="Path_13" data-name="Path 13"
                              d="M89.562,55.659A59.7,59.7,0,0,0,87.6,49.993a75.721,75.721,0,0,0-5.27-10.532L80.189,35.9l-3.551,2.134a77.209,77.209,0,0,0-9.619,6.8c-1.514,1.279-3,2.613-4.407,4.069-.136.147-.266.291-.4.437.479,1.1.969,2.2,1.475,3.291.335-.08.67-.163,1-.255a58.233,58.233,0,0,0,5.669-1.963,75.8,75.8,0,0,0,7.02-3.333,75.135,75.135,0,0,0,4.614,6.264,59.07,59.07,0,0,0,4.069,4.412c.255.235.512.465.764.695q1.453-1.092,2.876-2.22c-.042-.191-.091-.379-.141-.573ZM81.833,87.544c-.479-1.1-.969-2.206-1.475-3.294-.335.083-.67.163-1,.255a58.664,58.664,0,0,0-5.666,1.963A75.533,75.533,0,0,0,66.667,89.8a74.722,74.722,0,0,0-4.614-6.267,59.071,59.071,0,0,0-4.069-4.412c-.255-.233-.512-.462-.764-.692q-1.453,1.088-2.876,2.22c.047.188.094.382.144.57a59.693,59.693,0,0,0,1.963,5.666,75.567,75.567,0,0,0,5.27,10.532l2.14,3.562,3.551-2.131a77.317,77.317,0,0,0,9.619-6.8,59.543,59.543,0,0,0,4.407-4.069c.136-.147.266-.288.4-.435Zm20.6-14.494a77.522,77.522,0,0,0-6.8-9.619c-1.279-1.514-2.613-3-4.069-4.407-.141-.136-.291-.263-.435-.4-1.1.479-2.206.972-3.294,1.478.083.332.166.664.255,1a58.979,58.979,0,0,0,1.963,5.669,75.8,75.8,0,0,0,3.333,7.02A74.55,74.55,0,0,0,87.12,78.41a58.939,58.939,0,0,0-4.41,4.066l-.7.764q1.092,1.457,2.226,2.879c.185-.05.379-.1.565-.144,1.949-.559,3.825-1.232,5.669-1.965A75.721,75.721,0,0,0,101,78.739l3.562-2.14ZM55.963,75.772A57.927,57.927,0,0,0,54,70.105a75.515,75.515,0,0,0-3.333-7.023,75.138,75.138,0,0,0,6.264-4.614,59.04,59.04,0,0,0,4.41-4.066c.235-.255.465-.512.7-.767q-1.092-1.453-2.226-2.879c-.185.05-.376.1-.565.147a59.478,59.478,0,0,0-5.669,1.963,75.721,75.721,0,0,0-10.532,5.27l-3.562,2.14,2.134,3.551a77.5,77.5,0,0,0,6.8,9.619c1.279,1.514,2.613,3,4.069,4.407.144.136.291.266.435.4,1.107-.479,2.206-.969,3.294-1.478-.086-.332-.166-.667-.255-1Z"
                              transform="translate(-39.485 -35.898)" fill="#81c784"/>
                    </g>
                </g>
            </g>
        </g>
    </g>
</svg>
